<svg width="276" height="210" viewBox="0 0 276 210" fill="none" xmlns="http://www.w3.org/2000/svg">
<g clip-path="url(#clip0_21_9)">
<path d="M166.659 121.431L274.719 76.3242L275.392 164.89L166.659 121.431Z" fill="#9BC39A"/>
<path d="M154.852 34.6913C154.852 53.8321 139.336 69.3485 120.195 69.3485C101.054 69.3485 85.5378 53.8321 85.5378 34.6913C85.5378 15.5506 101.054 0.0340271 120.195 0.0340271C139.336 0.0340271 154.852 15.5506 154.852 34.6913Z" fill="#9BC39A"/>
<path d="M224.167 34.6573C224.167 53.798 208.65 69.3144 189.509 69.3144C170.369 69.3144 154.852 53.798 154.852 34.6573C154.852 15.5166 170.369 0 189.509 0C208.65 0 224.167 15.5166 224.167 34.6573Z" fill="#9BC39A"/>
<path d="M139.878 206.017C134.018 197.972 146.31 179.037 167.334 163.723C188.357 148.409 210.149 142.517 216.009 150.561C219.611 162.426 224.167 166.751 188.554 192.855C167.531 208.169 145.738 214.061 139.878 206.017Z" fill="#9BC39A"/>
<path d="M5.93658 200.11C-1.05769 193.03 8.27239 172.472 26.7759 154.194C45.2794 135.916 65.9496 126.838 72.9436 133.919C79.9379 140.999 70.6081 161.556 52.1045 179.835C33.6009 198.113 12.9308 207.191 5.93658 200.11Z" fill="#9BC39A"/>
<path d="M18.9249 137.478C30.8309 125.12 35.6179 106.67 47.1077 93.9243C65.0164 74.0574 105.554 65.2634 148.49 69.1991H173.959C210.584 69.1991 218.65 70.5374 218.65 107.162V159.542C218.65 167.239 212.41 173.478 204.714 173.478H15.3776C8.8293 173.478 3.208 169.509 0.788151 163.846C-0.824155 160.072 1.11017 155.969 3.95725 153.014L18.9249 137.478Z" fill="#9BC39A"/>
</g>
<defs>
<clipPath id="clip0_21_9">
<rect width="275.835" height="210" fill="white"/>
</clipPath>
</defs>
</svg>
